<svg height="480pt" viewBox="0 0 480 480" width="480pt" xmlns="http://www.w3.org/2000/svg"><path d="m400 96v-48c0-8.839844 7.160156-16 16-16h56c4.414062 0 8-3.585938 8-8v-16c0-4.414062-3.585938-8-8-8h-64c-22.089844 0-40 17.910156-40 40v56zm0 0" fill="#999"/><path d="m464 24v-16c0-4.414062-3.585938-8-8-8h-48c-22.089844 0-40 17.910156-40 40v56h16v-48c0-8.839844 7.160156-16 16-16h56c4.414062 0 8-3.585938 8-8zm0 0" fill="#b3b3b3"/><path d="m208 208h256v208h-256zm0 0" fill="#911d22"/><path d="m208 208h224v208h-224zm0 0" fill="#c1272d"/><path d="m432 264c0 13.253906-10.746094 24-24 24s-24-10.746094-24-24 10.746094-24 24-24 24 10.746094 24 24zm0 0" fill="#bfbfbf"/><path d="m416 264c0-12.441406-7.164062-22.527344-16-22.527344s-16 10.085938-16 22.527344 7.164062 22.527344 16 22.527344 16-10.085938 16-22.527344zm0 0" fill="#fff"/><path d="m416 352c0 17.671875-14.328125 32-32 32s-32-14.328125-32-32 14.328125-32 32-32 32 14.328125 32 32zm0 0" fill="#bfbfbf"/><path d="m400 352c0-17.050781-10.746094-30.871094-24-30.871094s-24 13.820313-24 30.871094 10.746094 30.871094 24 30.871094 24-13.820313 24-30.871094zm0 0" fill="#fff"/><path d="m216 480h184c35.34375 0 64-28.65625 64-64h-248zm0 0" fill="#b3b3b3"/><path d="m432 416h-216v64h152c35.34375 0 64-28.65625 64-64zm0 0" fill="#ccc"/><path d="m224 144h240v64h-240zm0 0" fill="#b3b3b3"/><path d="m224 144h208v64h-208zm0 0" fill="#ccc"/><path d="m224 144h-8c-4.414062 0-8-3.585938-8-8v-32c0-4.414062 3.585938-8 8-8h256c4.414062 0 8 3.585938 8 8v32c0 4.414062-3.585938 8-8 8zm0 0" fill="#4d4d4d"/><path d="m448 136v-32c0-4.414062-3.585938-8-8-8h-224c-4.414062 0-8 3.585938-8 8v32c0 4.414062 3.585938 8 8 8h224c4.414062 0 8-3.585938 8-8zm0 0" fill="#666"/><path d="m297.886719 320.070312c12.371093.960938 22.113281 11.3125 22.113281 23.929688 0 13.257812-10.742188 24-24 24h-272c-13.257812 0-24-10.742188-24-24 0-12.640625 9.777344-23 22.183594-23.9375zm0 0" fill="#603813"/><path d="m288 344c0-12.625-9.742188-22.96875-22.113281-23.929688h-243.710938c-12.398437.929688-22.175781 11.289063-22.175781 23.929688 0 13.257812 10.742188 24 24 24h240c13.257812 0 24-10.742188 24-24zm0 0" fill="#754c24"/><path d="m8 288c0 17.671875 14.328125 40 32 40 7.609375 0 14.503906-2.769531 20-7.207031 5.496094 4.4375 12.390625 7.207031 20 7.207031s14.503906-2.769531 20-7.207031c5.496094 4.4375 12.390625 7.207031 20 7.207031s14.503906-2.769531 20-7.207031c5.496094 4.4375 12.390625 7.207031 20 7.207031s14.503906-2.769531 20-7.207031c5.496094 4.4375 12.390625 7.207031 20 7.207031s14.503906-2.769531 20-7.207031c5.496094 4.4375 12.390625 7.207031 20 7.207031s14.503906-2.769531 20-7.207031c5.496094 4.4375 12.390625 7.207031 20 7.207031 17.671875 0 32-22.328125 32-40zm0 0" fill="#69952f"/><path d="m25.289062 322.65625c.917969-.609375 1.863282-1.175781 2.710938-1.863281 4.503906 3.640625 9.984375 6.054687 16 6.839843 6.015625-.785156 11.496094-3.207031 16-6.839843 1.257812 1.015625 2.609375 1.910156 4 2.742187 1.390625-.824218 2.742188-1.726562 4-2.742187 4.503906 3.640625 9.984375 6.054687 16 6.839843 6.015625-.785156 11.496094-3.207031 16-6.839843 1.257812 1.015625 2.609375 1.910156 4 2.742187 1.390625-.824218 2.742188-1.726562 4-2.742187 4.503906 3.640625 9.984375 6.054687 16 6.839843 6.015625-.785156 11.496094-3.207031 16-6.839843 1.257812 1.015625 2.609375 1.910156 4 2.742187 1.390625-.824218 2.742188-1.726562 4-2.742187 4.503906 3.640625 9.984375 6.054687 16 6.839843 6.015625-.785156 11.496094-3.207031 16-6.839843 1.257812 1.015625 2.609375 1.910156 4 2.742187 1.390625-.824218 2.742188-1.726562 4-2.742187 4.503906 3.640625 9.984375 6.054687 16 6.839843 6.015625-.785156 11.496094-3.207031 16-6.839843 1.257812 1.015625 2.609375 1.910156 4 2.742187 1.390625-.824218 2.742188-1.726562 4-2.742187 4.503906 3.640625 9.984375 6.054687 16 6.839843 6.015625-.785156 11.496094-3.207031 16-6.839843.855469.6875 1.800781 1.253906 2.710938 1.863281 10.265624-7.679688 17.289062-22.296875 17.289062-34.65625h-272c0 12.359375 7.023438 26.976562 17.289062 34.65625zm0 0" fill="#8cc63f"/><path d="m312 288c0-83.945312-68.054688-152-152-152s-152 68.054688-152 152zm0 0" fill="#bd904a"/><path d="m140 137.464844c-74.472656 9.816406-132 73.382812-132 150.535156h264c0-77.152344-57.527344-140.71875-132-150.535156zm0 0" fill="#fcc062"/><path d="m0 368v32c0 26.511719 21.488281 48 48 48h224c26.511719 0 48-21.488281 48-48v-32zm0 0" fill="#bd904a"/><path d="m288 400v-32h-288v32c0 26.511719 21.488281 48 48 48h192c26.511719 0 48-21.488281 48-48zm0 0" fill="#fcc062"/><path d="m0 448h320v32h-320zm0 0" fill="#666"/><path d="m0 448h288v32h-288zm0 0" fill="#808080"/></svg>